<?xml version="1.0" standalone="no"?>
<!DOCTYPE svg PUBLIC "-//W3C//DTD SVG 20010904//EN"
 "http://www.w3.org/TR/2001/REC-SVG-20010904/DTD/svg10.dtd">
<svg version="1.0" xmlns="http://www.w3.org/2000/svg"
 width="880.000000pt" height="626.000000pt" viewBox="0 0 880.000000 626.000000"
 preserveAspectRatio="xMidYMid meet">

<g transform="translate(0.000000,626.000000) scale(0.100000,-0.100000)"
fill="#000000" stroke="none">
<path d="M3755 4390 c-449 -20 -578 -49 -669 -150 -77 -85 -92 -166 -102 -526
l-7 -272 54 -11 c55 -10 147 -27 959 -171 157 -28 425 -76 595 -106 171 -30
346 -61 390 -69 44 -8 208 -37 365 -65 430 -76 452 -80 466 -80 11 0 14 37 14
200 0 199 0 200 -22 205 -13 2 -210 36 -438 75 -228 38 -521 88 -650 110 -129
22 -332 56 -450 76 -248 41 -250 41 -230 54 30 19 1042 9 1639 -16 l154 -6 -7
173 c-10 263 -26 451 -42 481 -26 51 -118 65 -534 84 -63 3 -135 7 -160 9 -91
10 -1141 13 -1325 5z m1465 -44 c118 -8 217 -15 219 -15 1 -1 1 -21 -1 -45
l-3 -44 70 -7 c38 -3 94 -11 123 -16 87 -17 90 -27 108 -344 5 -84 11 -118 26
-142 11 -18 15 -33 10 -33 -6 0 -20 15 -31 34 -19 30 -27 34 -79 40 -127 13
-980 28 -1327 23 -337 -5 -376 -7 -435 -26 -80 -25 -142 -64 -206 -128 l-49
-48 45 -3 c25 -2 207 -30 405 -62 478 -78 680 -110 696 -110 8 1 -128 37 -300
81 -405 103 -415 108 -106 55 110 -19 470 -80 800 -136 330 -56 601 -103 603
-105 2 -2 -5 -17 -17 -33 -19 -27 -21 -44 -21 -161 0 -81 -4 -131 -10 -131 -6
0 -10 33 -10 78 0 100 -6 108 -56 85 -21 -10 -41 -20 -44 -23 -3 -3 -23 -14
-45 -24 -22 -10 -47 -23 -55 -27 -82 -45 -63 -45 -303 -5 -374 64 -2198 385
-2212 390 -12 4 -1 400 15 544 6 52 20 116 31 143 40 93 140 156 281 178 57 9
295 26 488 35 187 9 1190 -5 1390 -18z"/>
<path d="M2980 3123 c0 -112 1 -203 3 -203 1 0 79 -13 172 -29 94 -17 319 -55
500 -86 182 -31 409 -69 505 -86 96 -16 267 -45 380 -65 113 -19 216 -37 230
-40 67 -16 -43 -23 -410 -23 -364 -1 -795 8 -1214 25 l-169 7 7 -174 c10 -250
25 -440 38 -472 21 -55 62 -63 413 -87 286 -19 571 -25 1075 -24 873 2 1088
29 1201 151 80 87 95 165 105 530 l7 272 -24 5 c-13 3 -141 27 -284 52 -448
78 -789 139 -1762 312 l-773 138 0 -203z m189 142 c75 -13 683 -122 1351 -240
1112 -197 1296 -232 1249 -234 -15 -1 -17 -28 -23 -218 -12 -363 -31 -449
-114 -506 -87 -60 -157 -73 -502 -87 -287 -12 -312 -12 -307 -2 3 4 -268 6
-601 5 -653 -2 -1027 12 -1099 42 -27 12 -39 12 -50 3 -9 -7 -17 -8 -23 -2
-10 10 -22 164 -35 433 l-7 134 129 -6 c70 -4 313 -12 538 -19 226 -7 402 -14
392 -16 -14 -3 -17 -12 -15 -40 l3 -37 375 0 c346 0 378 1 404 18 34 23 24 38
-35 56 l-42 13 39 17 c21 10 45 25 52 34 9 11 40 17 110 22 126 8 176 15 165
25 -4 4 -466 83 -1025 176 l-1018 169 -22 -25 c-13 -13 -16 -19 -8 -12 13 9
16 7 16 -9 0 -20 -7 -22 -43 -13 -23 6 -23 9 -23 175 0 149 2 169 16 169 9 0
78 -11 153 -25z"/>
<path d="M5600 2461 c-75 -23 -107 -39 -160 -81 -49 -38 -75 -64 -104 -104
-10 -14 -24 -26 -30 -26 -6 0 -22 -25 -35 -55 -13 -30 -27 -55 -31 -55 -12 0
-31 -78 -25 -102 6 -23 6 -23 132 -16 147 8 217 27 272 74 51 44 72 100 77
204 3 47 6 105 8 130 3 43 1 46 -23 47 -14 0 -51 -7 -81 -16z"/>
</g>
</svg>
